<svg width="130" height="162" viewBox="0 0 130 162" fill="none" xmlns="http://www.w3.org/2000/svg">
<path d="M40.3027 11.0679C52.3993 11.0679 61.5206 24.9691 52.423 25.0401C36.2962 25.1525 48.3928 13.0791 40.3027 11.0679Z" fill="#E637B7"/>
<path d="M56.6133 9.05664C72.6156 9.05664 77.8311 22.9579 68.7395 23.023C52.5831 23.1413 64.6796 11.0679 56.6133 9.05664Z" fill="#E637B7"/>
<path d="M28.2287 13.0791C28.2287 13.0791 36.295 17.1075 30.226 25.1525C24.157 33.1975 28.2109 33.2034 32.2411 33.2034C36.2713 33.2034 40.3015 13.0791 28.2287 13.0791Z" fill="#E637B7"/>
<path d="M64.5481 49.1335H24.2461V109.506C24.2461 129.583 60.3994 129.619 64.5481 129.619C68.6969 129.619 104.85 129.572 104.85 109.506V49.1335H64.5481Z" fill="white"/>
<path d="M104.845 41.2542C104.478 21.3606 88.7185 5.02811 56.4591 9.05652C60.4893 9.05652 72.5858 13.079 72.5858 21.1299C70.5707 13.079 52.4348 9.05652 40.3264 11.0737C42.3415 11.0737 48.3928 13.0849 48.3928 21.1299C42.3415 13.079 40.3027 13.079 28.2299 13.079C36.2962 15.0903 36.2962 25.1524 32.2601 29.1808C30.245 31.1921 28.2299 25.1524 30.245 19.1246C24.1937 25.1524 20.1517 33.2033 24.1937 41.2542C20.1635 45.2767 18.1484 61.3667 18.1484 61.3667V77.4921H28.2239C28.2239 77.4921 28.2239 57.3797 32.2542 53.3454C36.2844 49.311 48.3868 53.3454 64.5136 53.3454C80.6403 53.3454 92.7428 49.3229 96.773 53.3454C100.803 57.3679 100.815 77.4921 100.815 77.4921H110.891V61.3785C110.891 61.3785 108.881 45.2767 104.845 41.2542Z" fill="#FF64C4"/>
<path d="M112.911 113.748L105.206 113.7C105.39 111.973 105.283 110.589 104.827 109.678C104.827 113.7 96.7605 121.751 84.6758 121.751C76.6094 121.751 68.549 93.5762 64.5248 93.5762C60.5005 93.5762 52.4282 121.751 44.3737 121.751C32.2772 121.751 24.2227 113.7 24.2227 109.678C23.7664 110.589 23.63 111.973 23.8493 113.7L16.1445 113.748V119.74H25.1947C30.1021 135.457 46.2762 162 56.4584 162H72.5852C82.7614 162 98.9356 135.457 103.849 119.74H112.911V113.748Z" fill="black"/>
<path d="M38.3105 119.74L42.3408 115.712C52.4163 125.768 52.4163 125.768 52.4163 129.802C52.4163 133.837 52.3333 145.869 52.3629 149.915C52.4222 157.942 44.3559 157.942 40.3019 157.942C38.8795 157.942 38.8795 153.943 40.3019 153.943C44.3084 153.943 48.3446 153.943 48.3505 149.921C48.3505 141.87 48.3505 137.889 48.3505 133.848C48.3505 129.808 48.392 129.802 38.3105 119.74Z" fill="#149EF2"/>
<path d="M36.2951 161.97C40.3253 161.97 44.3555 162 44.3318 153.919C44.3318 149.909 44.3318 149.921 44.3318 145.898C44.3318 137.847 44.3318 137.847 32.2352 125.786C16.1085 109.69 12.1731 109.589 8.04214 113.712C3.91118 117.835 4.01194 117.735 4.01194 129.814C4.01194 141.893 24.1926 161.97 36.2951 161.97Z" fill="#FF64C4"/>
<path d="M36.2948 162C40.325 162 40.325 157.948 40.325 153.937V145.898C40.3013 137.83 40.3013 137.83 32.2587 129.802C20.1503 117.717 12.1965 109.577 8.06558 113.7C3.93462 117.824 4.03537 117.723 4.03537 129.802C4.03537 141.882 24.1923 162 36.2948 162Z" fill="black"/>
<path d="M28.2292 159.983C36.6037 159.983 36.2896 157.972 36.2896 153.949V149.921C36.2896 141.876 36.2896 137.847 32.2594 133.825C20.151 121.752 12.1973 113.576 8.06634 117.717C0 125.774 0 125.774 0 129.802C0 133.831 0 135.984 0 137.83C0 143.402 2.13364 146.212 8.06041 149.903C24.1931 159.983 24.1931 159.983 28.2292 159.983Z" fill="#FF64C4"/>
<path d="M35.1048 110.861L32.7341 113.227C32.4195 113.541 32.2425 113.967 32.2422 114.41V115.73L33.2497 114.724L34.2573 115.73L36.2783 117.741L40.3085 113.718L37.4637 110.879C37.152 110.567 36.7295 110.39 36.2879 110.386C35.8463 110.383 35.4212 110.554 35.1048 110.861Z" fill="#149EF2"/>
<path d="M33.118 114.558L34.2738 115.741L32.2587 117.752V114.943C32.2527 114.841 32.2779 114.74 32.331 114.653C32.384 114.565 32.4623 114.496 32.5555 114.455C32.6487 114.413 32.7525 114.4 32.8529 114.419C32.9534 114.437 33.0459 114.486 33.118 114.558Z" fill="#000672"/>
<path d="M40.7316 113.289L35.8744 118.137C35.5457 118.465 35.5457 118.997 35.8744 119.325L38.7158 122.161C39.0445 122.489 39.5773 122.489 39.906 122.161L44.7632 117.313C45.0919 116.985 45.0919 116.453 44.7632 116.125L41.9218 113.289C41.5931 112.961 41.0603 112.961 40.7316 113.289Z" fill="black"/>
<path d="M41.3324 114.707L37.3008 118.731L39.3166 120.743L43.3482 116.719L41.3324 114.707Z" fill="#149EF2"/>
<path d="M26.2141 159.983C28.2292 159.983 28.2292 159.983 28.2292 149.927C28.2292 141.882 28.2292 141.882 16.1327 129.814C6.05716 119.758 0 123.775 0 129.814C0 133.837 0 135.996 0 137.859C0 143.432 2.13364 146.241 8.06041 149.933C24.1931 159.983 24.1931 159.983 26.2141 159.983Z" fill="#149EF2"/>
<path d="M48.3921 127.785C49.505 127.785 50.4072 126.885 50.4072 125.774C50.4072 124.663 49.505 123.763 48.3921 123.763C47.2791 123.763 46.377 124.663 46.377 125.774C46.377 126.885 47.2791 127.785 48.3921 127.785Z" fill="white"/>
<path d="M48.3927 126.981C49.0604 126.981 49.6017 126.44 49.6017 125.774C49.6017 125.107 49.0604 124.567 48.3927 124.567C47.7249 124.567 47.1836 125.107 47.1836 125.774C47.1836 126.44 47.7249 126.981 48.3927 126.981Z" fill="black"/>
<path d="M10.0761 93.5763V73.4639C10.0761 73.4639 2.00977 73.4639 2.00977 83.5201C2.00977 93.5763 10.0761 93.5763 10.0761 93.5763Z" fill="#149EF2"/>
<path d="M8.06641 69.4294C8.06641 67.4181 14.1117 65.4128 14.1117 67.4181V99.6158C14.1117 101.615 8.06641 99.6158 8.06641 97.5987V69.4294Z" fill="#FF64C4"/>
<path d="M79.306 0H49.7373C40.5605 0.00939579 31.7622 3.65208 25.2731 10.1287C18.7841 16.6053 15.1344 25.3868 15.125 34.5461V65.401H17.1401V34.5461C17.1495 25.9202 20.5869 17.6503 26.698 11.5509C32.8091 5.45143 41.0949 2.02064 49.7373 2.01125H79.306C87.9484 2.02064 96.2342 5.45143 102.345 11.5509C108.456 17.6503 111.894 25.9202 111.903 34.5461V65.401H113.918V34.5461C113.907 25.3873 110.257 16.6067 103.769 10.1304C97.2798 3.65415 88.4824 0.0109584 79.306 0V0Z" fill="white"/>
<path d="M118.963 93.5763V73.4639C118.963 73.4639 127.023 73.4639 127.023 83.5201C127.023 93.5763 118.963 93.5763 118.963 93.5763Z" fill="#149EF2"/>
<path d="M120.977 69.4294C120.977 67.4181 114.926 65.4128 114.926 67.4181V99.6158C114.926 101.615 120.977 99.6158 120.977 97.5987V69.4294Z" fill="#FF64C4"/>
<path d="M24.1921 149.921C24.1921 141.876 24.1921 141.876 16.1317 133.825C8.07129 125.774 4.03516 125.774 4.03516 133.825C4.03516 141.876 4.03516 141.876 12.0956 147.909C20.156 153.943 24.1921 157.972 24.1921 149.921Z" fill="black"/>
<path d="M90.7327 119.74L86.6966 115.712C76.6211 125.768 76.6211 125.768 76.6211 129.802C76.6211 133.837 76.71 145.869 76.6804 149.915C76.6152 157.942 84.6815 157.942 88.7176 157.942C90.1341 157.942 90.1341 153.943 88.7176 153.943C84.7111 153.943 80.6691 153.943 80.6632 149.921C80.6632 141.87 80.6632 137.889 80.6632 133.848C80.6632 129.808 80.6513 129.802 90.7327 119.74Z" fill="#149EF2"/>
<path d="M92.748 161.97C88.7178 161.97 84.6816 162 84.7113 153.919C84.7113 149.909 84.6816 149.921 84.6816 145.898C84.6816 137.847 84.6816 137.847 96.7782 125.786C112.911 109.69 116.846 109.589 120.977 113.712C125.108 117.835 125.007 117.735 125.007 129.814C125.007 141.893 104.845 161.97 92.748 161.97Z" fill="#FF64C4"/>
<path d="M92.747 162C88.7168 162 88.7168 157.948 88.7168 153.937V145.898C88.7168 137.847 88.7168 137.847 96.7772 129.802C108.88 117.723 116.845 109.577 120.976 113.701C125.107 117.824 125.006 117.723 125.006 129.802C125.006 141.882 104.844 162 92.747 162Z" fill="black"/>
<path d="M100.814 159.983C92.4394 159.983 92.7475 157.972 92.7475 153.949V149.921C92.7475 141.876 92.7475 137.847 96.7837 133.825C108.88 121.752 116.846 113.576 120.977 117.717C129.043 125.768 129.043 125.768 129.043 129.797C129.043 133.825 129.043 135.978 129.043 137.841C129.043 143.414 126.904 146.224 120.983 149.915C104.844 159.983 104.844 159.983 100.814 159.983Z" fill="#FF64C4"/>
<path d="M93.94 110.861L96.3107 113.227C96.4675 113.382 96.5918 113.566 96.6763 113.769C96.7608 113.973 96.8037 114.191 96.8026 114.41V115.73L95.7951 114.724L94.7875 115.73L92.7724 117.741L88.7422 113.718L91.587 110.879C91.8984 110.568 92.3197 110.393 92.7599 110.389C93.2 110.386 93.6239 110.555 93.94 110.861Z" fill="#149EF2"/>
<path d="M95.9197 114.558L94.7344 115.741L96.7495 117.752V114.943C96.7497 114.847 96.7223 114.753 96.6707 114.671C96.619 114.59 96.5451 114.526 96.4578 114.485C96.3706 114.445 96.2735 114.43 96.1781 114.443C96.0828 114.456 95.9931 114.496 95.9197 114.558Z" fill="#000672"/>
<path d="M87.1162 113.286L84.2748 116.122C83.9461 116.45 83.9461 116.982 84.2748 117.31L89.132 122.158C89.4607 122.486 89.9935 122.486 90.3222 122.158L93.1636 119.322C93.4923 118.994 93.4923 118.462 93.1636 118.134L88.3064 113.286C87.9777 112.958 87.4449 112.958 87.1162 113.286Z" fill="black"/>
<path d="M87.7072 114.704L85.6914 116.716L89.723 120.74L91.7388 118.728L87.7072 114.704Z" fill="#149EF2"/>
<path d="M102.83 159.983C100.814 159.983 100.814 159.983 100.814 149.927C100.814 141.882 100.814 141.882 112.911 129.814C122.986 119.758 129.044 123.775 129.044 129.814C129.044 133.837 129.044 135.996 129.044 137.859C129.044 143.432 126.904 146.241 120.983 149.933C104.845 159.983 104.845 159.983 102.83 159.983Z" fill="#149EF2"/>
<path d="M80.6518 127.785C81.7647 127.785 82.6669 126.885 82.6669 125.774C82.6669 124.663 81.7647 123.763 80.6518 123.763C79.5389 123.763 78.6367 124.663 78.6367 125.774C78.6367 126.885 79.5389 127.785 80.6518 127.785Z" fill="white"/>
<path d="M80.6524 126.981C81.3202 126.981 81.8615 126.44 81.8615 125.774C81.8615 125.107 81.3202 124.567 80.6524 124.567C79.9847 124.567 79.4434 125.107 79.4434 125.774C79.4434 126.44 79.9847 126.981 80.6524 126.981Z" fill="black"/>
<path d="M104.844 149.921C104.844 141.876 104.844 141.876 112.91 133.825C120.976 125.774 125.007 125.774 125.007 133.825C125.007 141.876 125.007 141.876 116.94 147.909C108.874 153.943 104.844 157.972 104.844 149.921Z" fill="black"/>
<path d="M54.4376 145.898H74.5886V123.632C74.585 118.424 73.3675 113.288 71.0325 108.631L67.0023 100.562C66.8623 100.284 66.6472 100.05 66.3812 99.887C66.1153 99.7239 65.809 99.6382 65.4969 99.6394H63.5411C63.2299 99.6386 62.9246 99.7246 62.6597 99.8876C62.3947 100.051 62.1807 100.284 62.0416 100.562L57.9877 108.655C55.6502 113.311 54.4326 118.448 54.4316 123.656L54.4376 145.898Z" fill="#FF64C4"/>
<path d="M68.5551 155.96H60.4887C56.4585 155.96 54.4415 153.947 54.4375 149.921V141.846C54.4375 137.847 56.4585 135.836 60.4591 135.836H68.5551C72.5853 135.836 74.6004 137.847 74.6004 141.846V149.95C74.6004 153.949 72.5853 155.96 68.5551 155.96Z" fill="#149EF2"/>
<path d="M64.5195 153.949C68.9744 153.949 72.5858 150.345 72.5858 145.898C72.5858 141.452 68.9744 137.847 64.5195 137.847C60.0645 137.847 56.4531 141.452 56.4531 145.898C56.4531 150.345 60.0645 153.949 64.5195 153.949Z" fill="black"/>
<path d="M69.0529 141.97C68.9817 142.042 68.9384 142.137 68.9308 142.238C68.9232 142.339 68.9518 142.439 69.0114 142.52C69.7497 143.492 70.1494 144.678 70.1494 145.898C70.1494 147.118 69.7497 148.304 69.0114 149.276C68.9506 149.357 68.9213 149.458 68.9289 149.559C68.9365 149.66 68.9806 149.755 69.0529 149.826C69.0948 149.868 69.1452 149.901 69.2007 149.922C69.2562 149.943 69.3156 149.952 69.375 149.949C69.4343 149.946 69.4923 149.93 69.5451 149.903C69.5978 149.875 69.6442 149.837 69.6811 149.791C70.5305 148.671 70.9903 147.305 70.9903 145.901C70.9903 144.497 70.5305 143.131 69.6811 142.012C69.6446 141.965 69.5986 141.926 69.5461 141.898C69.4935 141.87 69.4357 141.854 69.3763 141.85C69.3169 141.846 69.2574 141.855 69.2017 141.876C69.1459 141.896 69.0952 141.929 69.0529 141.97Z" fill="white"/>
<path d="M60.5843 141.379C60.6565 141.45 60.752 141.493 60.8533 141.499C60.9546 141.506 61.0548 141.476 61.1355 141.414C62.1105 140.678 63.2999 140.279 64.5227 140.279C65.7454 140.279 66.9348 140.678 67.9098 141.414C67.9896 141.475 68.0888 141.505 68.1891 141.499C68.2894 141.492 68.3839 141.45 68.4551 141.379C68.4972 141.337 68.53 141.287 68.5513 141.231C68.5725 141.176 68.5818 141.117 68.5784 141.057C68.5751 140.998 68.5592 140.94 68.5318 140.888C68.5044 140.835 68.4661 140.789 68.4195 140.752C67.298 139.904 65.9296 139.445 64.5227 139.445C63.1157 139.445 61.7474 139.904 60.6258 140.752C60.5788 140.788 60.54 140.834 60.5121 140.886C60.4842 140.939 60.4677 140.997 60.4638 141.056C60.4599 141.115 60.4686 141.175 60.4894 141.23C60.5101 141.286 60.5425 141.337 60.5843 141.379Z" fill="white"/>
<path d="M68.4551 150.418C68.3839 150.347 68.2894 150.304 68.1891 150.298C68.0888 150.291 67.9896 150.321 67.9098 150.382C66.9348 151.119 65.7454 151.517 64.5227 151.517C63.2999 151.517 62.1105 151.119 61.1355 150.382C61.0548 150.321 60.9546 150.29 60.8533 150.297C60.752 150.304 60.6565 150.346 60.5843 150.418C60.5425 150.46 60.5101 150.511 60.4894 150.566C60.4686 150.622 60.4599 150.681 60.4638 150.74C60.4677 150.8 60.4842 150.857 60.5121 150.91C60.54 150.962 60.5788 151.008 60.6258 151.045C61.7458 151.896 63.1148 152.357 64.5227 152.357C65.9306 152.357 67.2996 151.896 68.4195 151.045C68.4661 151.008 68.5044 150.962 68.5318 150.909C68.5592 150.856 68.5751 150.798 68.5784 150.739C68.5818 150.68 68.5725 150.621 68.5513 150.565C68.53 150.51 68.4972 150.459 68.4551 150.418Z" fill="white"/>
<path d="M59.9901 149.826C60.0627 149.755 60.1064 149.659 60.113 149.558C60.1195 149.456 60.0885 149.356 60.0257 149.276C59.291 148.302 58.8937 147.117 58.8937 145.898C58.8937 144.679 59.291 143.494 60.0257 142.52C60.0885 142.44 60.1195 142.34 60.113 142.239C60.1064 142.137 60.0627 142.042 59.9901 141.97C59.9478 141.929 59.8971 141.896 59.8413 141.876C59.7856 141.855 59.7261 141.846 59.6667 141.85C59.6073 141.854 59.5495 141.87 59.4969 141.898C59.4444 141.926 59.3984 141.965 59.3619 142.012C58.5125 143.131 58.0527 144.497 58.0527 145.901C58.0527 147.305 58.5125 148.671 59.3619 149.791C59.3988 149.837 59.4452 149.875 59.4979 149.903C59.5507 149.93 59.6087 149.946 59.668 149.949C59.7274 149.952 59.7868 149.943 59.8423 149.922C59.8978 149.901 59.9482 149.868 59.9901 149.826Z" fill="white"/>
<path d="M58.3076 133.825H70.7538C70.9893 133.825 71.2224 133.776 71.4377 133.681C71.653 133.586 71.8457 133.446 72.0034 133.271C72.1611 133.097 72.2801 132.891 72.3528 132.667C72.4255 132.443 72.4501 132.207 72.4251 131.973C71.9154 127.17 70.2382 114.493 66.5576 111.689C65.7516 111.098 63.3216 111.098 62.5215 111.689C58.841 114.493 57.1874 127.17 56.654 131.973C56.6292 132.206 56.6533 132.44 56.7249 132.663C56.7965 132.885 56.914 133.09 57.0697 133.265C57.2255 133.439 57.4161 133.579 57.6293 133.676C57.8425 133.772 58.0735 133.823 58.3076 133.825Z" fill="#149EF2"/>
<path d="M58.8055 130.216C58.6955 130.216 58.5899 130.173 58.5121 130.095C58.4343 130.017 58.3906 129.912 58.3906 129.802C58.4078 128.726 58.4889 127.651 58.6336 126.584C58.6402 126.53 58.6576 126.477 58.6848 126.429C58.712 126.381 58.7484 126.339 58.792 126.306C58.8356 126.272 58.8854 126.248 58.9386 126.234C58.9918 126.219 59.0473 126.216 59.1018 126.223C59.1567 126.23 59.2098 126.247 59.2579 126.274C59.3061 126.301 59.3484 126.338 59.3826 126.381C59.4167 126.424 59.4419 126.474 59.4568 126.527C59.4717 126.58 59.4759 126.636 59.4693 126.691C59.3251 127.722 59.2439 128.761 59.2263 129.802C59.2263 129.857 59.2154 129.911 59.1942 129.962C59.1729 130.013 59.1419 130.059 59.1027 130.097C59.0635 130.136 59.0171 130.166 58.9661 130.186C58.9151 130.207 58.8605 130.217 58.8055 130.216ZM59.2678 125.407H59.2026C59.1478 125.399 59.0952 125.38 59.0478 125.352C59.0004 125.323 58.9592 125.286 58.9266 125.241C58.894 125.196 58.8707 125.146 58.858 125.092C58.8454 125.038 58.8437 124.982 58.8529 124.928C59.41 121.461 60.8087 115.132 62.5216 113.422C62.6023 113.355 62.7052 113.321 62.8101 113.325C62.915 113.33 63.0144 113.374 63.0886 113.448C63.1629 113.522 63.2067 113.621 63.2115 113.726C63.2162 113.831 63.1815 113.933 63.1143 114.014C61.8163 115.309 60.4057 120.521 59.6827 125.058C59.6648 125.155 59.6136 125.243 59.538 125.307C59.4623 125.371 59.3668 125.406 59.2678 125.407Z" fill="white"/>
<path d="M107.115 121.751H106.611V157.918H107.115V121.751Z" fill="white"/>
<path d="M109.131 121.751H108.627V157.918H109.131V121.751Z" fill="white"/>
<path d="M111.144 121.751H110.641V157.918H111.144V121.751Z" fill="white"/>
<path d="M113.16 121.751H112.656V157.918H113.16V121.751Z" fill="white"/>
<path d="M115.182 121.751H114.678V157.918H115.182V121.751Z" fill="white"/>
<path d="M117.197 121.751H116.693V157.918H117.197V121.751Z" fill="white"/>
<path d="M119.211 121.751H118.707V157.918H119.211V121.751Z" fill="white"/>
<path d="M121.226 121.751H120.723V157.918H121.226V121.751Z" fill="white"/>
<path d="M123.242 121.751H122.738V157.918H123.242V121.751Z" fill="white"/>
<path d="M22.4335 121.751H21.9297V157.918H22.4335V121.751Z" fill="white"/>
<path d="M20.412 121.751H19.9082V157.918H20.412V121.751Z" fill="white"/>
<path d="M18.3964 121.751H17.8926V157.918H18.3964V121.751Z" fill="white"/>
<path d="M16.3827 121.751H15.8789V157.918H16.3827V121.751Z" fill="white"/>
<path d="M14.3671 121.751H13.8633V157.918H14.3671V121.751Z" fill="white"/>
<path d="M12.3514 121.751H11.8477V157.918H12.3514V121.751Z" fill="white"/>
<path d="M10.3358 121.751H9.83203V157.918H10.3358V121.751Z" fill="white"/>
<path d="M8.31628 121.751H7.8125V157.918H8.31628V121.751Z" fill="white"/>
<path d="M6.30065 121.751H5.79688V157.918H6.30065V121.751Z" fill="white"/>
<path d="M116.94 65.401C116.94 61.3785 104.844 58.196 104.844 61.3785V105.65C104.844 108.832 116.94 105.65 116.94 101.627V65.401Z" fill="black"/>
<path d="M108.88 109.672H112.91V57.3501H108.88V109.672Z" fill="#149EF2"/>
<path d="M12.0957 65.401C12.0957 61.3785 24.1922 58.196 24.1922 61.3785V105.65C24.1922 108.832 12.0957 105.65 12.0957 101.627V65.401Z" fill="black"/>
<path d="M20.163 57.356H16.1328V109.678H20.163V57.356Z" fill="#149EF2"/>
<path d="M64.5188 73.4519C44.1248 73.4519 24.2168 77.4744 24.2168 77.4744V95.5874H26.2378L28.2529 101.627H52.4223C56.4584 85.5253 56.4584 85.5253 64.5188 85.5253C72.5793 85.5253 72.5852 85.5253 76.6154 101.627H100.814L102.829 95.5874H104.845V77.4921C104.845 77.4921 84.9188 73.4519 64.5188 73.4519Z" fill="#000672"/>
<path d="M44.5866 85.2946V93.8069H36.0639V85.2946H44.5866ZM47.1114 82.7805H33.5391V96.3209H47.1114V82.7805Z" fill="#149EF2"/>
<path d="M88.7187 86.7736L92.5474 93.807H84.89L88.7187 86.7736ZM88.7187 81.5029L80.6523 96.3211H96.7791L88.7187 81.5029Z" fill="#149EF2"/>
<path d="M96.7776 71.4407C98.7986 71.4407 92.7474 67.4182 90.7323 67.4182C86.5835 67.4182 74.5996 69.4295 74.5996 71.6359C74.5996 73.452 76.6147 77.4744 78.6357 77.4744C80.6568 77.4744 86.6961 71.4407 96.7776 71.4407Z" fill="#E05AB7"/>
<path d="M32.2588 71.4407C30.2437 71.4407 36.2949 67.4182 38.31 67.4182C42.4587 67.4182 54.4367 69.4295 54.4367 71.6359C54.4367 73.452 52.4216 77.4744 50.4065 77.4744C48.3914 77.4744 42.3402 71.4407 32.2588 71.4407Z" fill="#E05AB7"/>
<path d="M96.7782 43.8926H24.2227V49.3348H96.7782V43.8926Z" fill="#FF64C4"/>
<path d="M96.7782 43.2832H24.2227V43.8925H96.7782V43.2832Z" fill="#FF64C4"/>
<path d="M96.7782 42.6741H24.2227V43.2834H96.7782V42.6741Z" fill="#FE63C4"/>
<path d="M96.7782 42.0647H24.2227V42.674H96.7782V42.0647Z" fill="#FE62C3"/>
<path d="M96.7782 41.4614H24.2227V42.0707H96.7782V41.4614Z" fill="#FD61C3"/>
<path d="M96.7782 40.8521H24.2227V41.4613H96.7782V40.8521Z" fill="#FD60C3"/>
<path d="M96.7782 40.2427H24.2227V40.852H96.7782V40.2427Z" fill="#FC5FC3"/>
<path d="M96.7782 39.6335H24.2227V40.2428H96.7782V39.6335Z" fill="#FC5EC2"/>
<path d="M96.7782 39.0242H24.2227V39.6335H96.7782V39.0242Z" fill="#FB5DC2"/>
<path d="M96.7782 38.4209H24.2227V39.0302H96.7782V38.4209Z" fill="#FA5CC2"/>
<path d="M96.7782 37.8115H24.2227V38.4208H96.7782V37.8115Z" fill="#FA5BC1"/>
<path d="M96.7782 37.2021H24.2227V37.8114H96.7782V37.2021Z" fill="#F95AC1"/>
<path d="M96.7782 36.593H24.2227V37.2023H96.7782V36.593Z" fill="#F959C1"/>
<path d="M96.7782 35.9895H24.2227V36.5988H96.7782V35.9895Z" fill="#F858C0"/>
<path d="M96.7782 35.3804H24.2227V35.9897H96.7782V35.3804Z" fill="#F857C0"/>
<path d="M96.7782 34.771H24.2227V35.3803H96.7782V34.771Z" fill="#F756C0"/>
<path d="M96.7782 34.1616H24.2227V34.7709H96.7782V34.1616Z" fill="#F655C0"/>
<path d="M96.7782 33.5525H24.2227V34.1618H96.7782V33.5525Z" fill="#F654BF"/>
<path d="M96.7782 32.949H24.2227V33.5583H96.7782V32.949Z" fill="#F553BF"/>
<path d="M96.7782 32.3398H24.2227V32.9491H96.7782V32.3398Z" fill="#F552BF"/>
<path d="M96.7782 31.7305H24.2227V32.3398H96.7782V31.7305Z" fill="#F451BE"/>
<path d="M96.7782 31.1211H24.2227V31.7304H96.7782V31.1211Z" fill="#F450BE"/>
<path d="M96.7782 30.512H24.2227V31.1213H96.7782V30.512Z" fill="#F34FBE"/>
<path d="M96.7782 29.9084H24.2227V30.5177H96.7782V29.9084Z" fill="#F34EBE"/>
<path d="M96.7782 29.2993H24.2227V29.9086H96.7782V29.2993Z" fill="#F24CBD"/>
<path d="M96.7782 28.6899H24.2227V29.2992H96.7782V28.6899Z" fill="#F14BBD"/>
<path d="M96.7782 28.0806H24.2227V28.6899H96.7782V28.0806Z" fill="#F14ABD"/>
<path d="M96.7782 27.4773H24.2227V28.0866H96.7782V27.4773Z" fill="#F049BC"/>
<path d="M96.7782 26.8679H24.2227V27.4772H96.7782V26.8679Z" fill="#F048BC"/>
<path d="M96.7782 26.2588H24.2227V26.8681H96.7782V26.2588Z" fill="#EF47BC"/>
<path d="M96.7782 25.6494H24.2227V26.2587H96.7782V25.6494Z" fill="#EF46BB"/>
<path d="M96.7782 25.04H24.2227V25.6493H96.7782V25.04Z" fill="#EE45BB"/>
<path d="M96.7782 24.4368H24.2227V25.0461H96.7782V24.4368Z" fill="#ED44BB"/>
<path d="M96.7782 23.8274H24.2227V24.4367H96.7782V23.8274Z" fill="#ED43BB"/>
<path d="M96.7782 23.218H24.2227V23.8273H96.7782V23.218Z" fill="#EC42BA"/>
<path d="M96.7782 22.6089H24.2227V23.2182H96.7782V22.6089Z" fill="#EC41BA"/>
<path d="M96.7782 22.0054H24.2227V22.6147H96.7782V22.0054Z" fill="#EB40BA"/>
<path d="M96.7782 21.3962H24.2227V22.0055H96.7782V21.3962Z" fill="#EB3FB9"/>
<path d="M96.7782 20.7869H24.2227V21.3962H96.7782V20.7869Z" fill="#EA3EB9"/>
<path d="M96.7782 20.1775H24.2227V20.7868H96.7782V20.1775Z" fill="#E93DB9"/>
<path d="M96.7782 19.5684H24.2227V20.1776H96.7782V19.5684Z" fill="#E93CB8"/>
<path d="M96.7782 18.9648H24.2227V19.5741H96.7782V18.9648Z" fill="#E83BB8"/>
<path d="M96.7782 18.3557H24.2227V18.965H96.7782V18.3557Z" fill="#E83AB8"/>
<path d="M96.7782 17.7463H24.2227V18.3556H96.7782V17.7463Z" fill="#E739B8"/>
<path d="M96.7782 17.137H24.2227V17.7463H96.7782V17.137Z" fill="#E738B7"/>
<path d="M96.7782 16.5278H24.2227V17.1371H96.7782V16.5278Z" fill="#E637B7"/>
<path d="M96.7782 15.0903H24.2227V16.5278H96.7782V15.0903Z" fill="#E637B7"/>
<path d="M88.7126 37.2021H64.5195V37.2258H88.7126V37.2021Z" fill="#F95AC1"/>
<path d="M88.7126 36.5928H64.5195V37.2021H88.7126V36.5928Z" fill="#F959C1"/>
<path d="M88.7126 35.9895H64.5195V36.5988H88.7126V35.9895Z" fill="#F858C0"/>
<path d="M88.7126 35.3801H64.5195V35.9894H88.7126V35.3801Z" fill="#F857C0"/>
<path d="M88.7126 34.771H64.5195V35.3803H88.7126V34.771Z" fill="#F756C0"/>
<path d="M88.7126 34.1616H64.5195V34.7709H88.7126V34.1616Z" fill="#F655C0"/>
<path d="M88.7126 33.5522H64.5195V34.1615H88.7126V33.5522Z" fill="#F654BF"/>
<path d="M88.7126 32.949H64.5195V33.5583H88.7126V32.949Z" fill="#F553BF"/>
<path d="M88.7126 32.3396H64.5195V32.9489H88.7126V32.3396Z" fill="#F552BF"/>
<path d="M88.7126 31.7302H64.5195V32.3395H88.7126V31.7302Z" fill="#F451BE"/>
<path d="M88.7126 31.1211H64.5195V31.7304H88.7126V31.1211Z" fill="#F450BE"/>
<path d="M88.7126 30.5117H64.5195V31.121H88.7126V30.5117Z" fill="#F34FBE"/>
<path d="M88.7126 29.9084H64.5195V30.5177H88.7126V29.9084Z" fill="#F34EBE"/>
<path d="M88.7126 29.2991H64.5195V29.9084H88.7126V29.2991Z" fill="#F24CBD"/>
<path d="M88.7126 28.6897H64.5195V29.299H88.7126V28.6897Z" fill="#F14BBD"/>
<path d="M88.7126 28.0806H64.5195V28.6899H88.7126V28.0806Z" fill="#F14ABD"/>
<path d="M88.7126 27.4771H64.5195V28.0863H88.7126V27.4771Z" fill="#F049BC"/>
<path d="M88.7126 26.8679H64.5195V27.4772H88.7126V26.8679Z" fill="#F048BC"/>
<path d="M88.7126 26.2585H64.5195V26.8678H88.7126V26.2585Z" fill="#EF47BC"/>
<path d="M88.7126 25.6492H64.5195V26.2585H88.7126V25.6492Z" fill="#EF46BB"/>
<path d="M88.7126 25.04H64.5195V25.6493H88.7126V25.04Z" fill="#EE45BB"/>
<path d="M88.7126 24.4365H64.5195V25.0458H88.7126V24.4365Z" fill="#ED44BB"/>
<path d="M88.7126 23.8274H64.5195V24.4367H88.7126V23.8274Z" fill="#ED43BB"/>
<path d="M88.7126 23.218H64.5195V23.8273H88.7126V23.218Z" fill="#EC42BA"/>
<path d="M88.7126 22.6086H64.5195V23.2179H88.7126V22.6086Z" fill="#EC41BA"/>
<path d="M88.7126 22.0054H64.5195V22.6147H88.7126V22.0054Z" fill="#EB40BA"/>
<path d="M88.7126 21.396H64.5195V22.0053H88.7126V21.396Z" fill="#EB3FB9"/>
<path d="M88.7126 21.1299H64.5195V21.3961H88.7126V21.1299Z" fill="#EA3EB9"/>
<path d="M66.6872 37.2021H42.4941V37.2258H66.6872V37.2021Z" fill="#F95AC1"/>
<path d="M66.6872 36.5928H42.4941V37.2021H66.6872V36.5928Z" fill="#F959C1"/>
<path d="M66.6872 35.9895H42.4941V36.5988H66.6872V35.9895Z" fill="#F858C0"/>
<path d="M66.6872 35.3801H42.4941V35.9894H66.6872V35.3801Z" fill="#F857C0"/>
<path d="M66.6872 34.771H42.4941V35.3803H66.6872V34.771Z" fill="#F756C0"/>
<path d="M66.6872 34.1616H42.4941V34.7709H66.6872V34.1616Z" fill="#F655C0"/>
<path d="M66.6872 33.5522H42.4941V34.1615H66.6872V33.5522Z" fill="#F654BF"/>
<path d="M66.6872 32.949H42.4941V33.5583H66.6872V32.949Z" fill="#F553BF"/>
<path d="M66.6872 32.3396H42.4941V32.9489H66.6872V32.3396Z" fill="#F552BF"/>
<path d="M66.6872 31.7302H42.4941V32.3395H66.6872V31.7302Z" fill="#F451BE"/>
<path d="M66.6872 31.1211H42.4941V31.7304H66.6872V31.1211Z" fill="#F450BE"/>
<path d="M66.6872 30.5117H42.4941V31.121H66.6872V30.5117Z" fill="#F34FBE"/>
<path d="M66.6872 29.9084H42.4941V30.5177H66.6872V29.9084Z" fill="#F34EBE"/>
<path d="M66.6872 29.2991H42.4941V29.9084H66.6872V29.2991Z" fill="#F24CBD"/>
<path d="M66.6872 28.6897H42.4941V29.299H66.6872V28.6897Z" fill="#F14BBD"/>
<path d="M66.6872 28.0806H42.4941V28.6899H66.6872V28.0806Z" fill="#F14ABD"/>
<path d="M66.6872 27.4771H42.4941V28.0863H66.6872V27.4771Z" fill="#F049BC"/>
<path d="M66.6872 26.8679H42.4941V27.4772H66.6872V26.8679Z" fill="#F048BC"/>
<path d="M66.6872 26.2585H42.4941V26.8678H66.6872V26.2585Z" fill="#EF47BC"/>
<path d="M66.6872 25.6492H42.4941V26.2585H66.6872V25.6492Z" fill="#EF46BB"/>
<path d="M66.6872 25.04H42.4941V25.6493H66.6872V25.04Z" fill="#EE45BB"/>
<path d="M66.6872 24.4365H42.4941V25.0458H66.6872V24.4365Z" fill="#ED44BB"/>
<path d="M66.6872 23.8274H42.4941V24.4367H66.6872V23.8274Z" fill="#ED43BB"/>
<path d="M66.6872 23.218H42.4941V23.8273H66.6872V23.218Z" fill="#EC42BA"/>
<path d="M66.6872 22.6086H42.4941V23.2179H66.6872V22.6086Z" fill="#EC41BA"/>
<path d="M66.6872 22.0054H42.4941V22.6147H66.6872V22.0054Z" fill="#EB40BA"/>
<path d="M66.6872 21.396H42.4941V22.0053H66.6872V21.396Z" fill="#EB3FB9"/>
<path d="M66.6872 21.1299H42.4941V21.3961H66.6872V21.1299Z" fill="#EA3EB9"/>
<path d="M52.4221 40.8518H30.2441V41.2541H52.4221V40.8518Z" fill="#FD60C3"/>
<path d="M52.4221 40.2427H30.2441V40.852H52.4221V40.2427Z" fill="#FC5FC3"/>
<path d="M52.4221 39.6333H30.2441V40.2426H52.4221V39.6333Z" fill="#FC5EC2"/>
<path d="M52.4221 39.0239H30.2441V39.6332H52.4221V39.0239Z" fill="#FB5DC2"/>
<path d="M52.4221 38.4207H30.2441V39.0299H52.4221V38.4207Z" fill="#FA5CC2"/>
<path d="M52.4221 37.8113H30.2441V38.4206H52.4221V37.8113Z" fill="#FA5BC1"/>
<path d="M52.4221 37.2021H30.2441V37.8114H52.4221V37.2021Z" fill="#F95AC1"/>
<path d="M52.4221 36.5928H30.2441V37.2021H52.4221V36.5928Z" fill="#F959C1"/>
<path d="M52.4221 35.9895H30.2441V36.5988H52.4221V35.9895Z" fill="#F858C0"/>
<path d="M52.4221 35.3801H30.2441V35.9894H52.4221V35.3801Z" fill="#F857C0"/>
<path d="M52.4221 34.7708H30.2441V35.38H52.4221V34.7708Z" fill="#F756C0"/>
<path d="M52.4221 34.1616H30.2441V34.7709H52.4221V34.1616Z" fill="#F655C0"/>
<path d="M52.4221 33.5522H30.2441V34.1615H52.4221V33.5522Z" fill="#F654BF"/>
<path d="M52.4221 32.949H30.2441V33.5583H52.4221V32.949Z" fill="#F553BF"/>
<path d="M52.4221 32.3396H30.2441V32.9489H52.4221V32.3396Z" fill="#F552BF"/>
<path d="M52.4221 31.7302H30.2441V32.3395H52.4221V31.7302Z" fill="#F451BE"/>
<path d="M52.4221 31.1211H30.2441V31.7304H52.4221V31.1211Z" fill="#F450BE"/>
<path d="M52.4221 30.5117H30.2441V31.121H52.4221V30.5117Z" fill="#F34FBE"/>
<path d="M52.4221 29.9084H30.2441V30.5177H52.4221V29.9084Z" fill="#F34EBE"/>
<path d="M52.4221 29.2991H30.2441V29.9084H52.4221V29.2991Z" fill="#F24CBD"/>
<path d="M52.4221 28.6897H30.2441V29.299H52.4221V28.6897Z" fill="#F14BBD"/>
<path d="M52.4221 28.0806H30.2441V28.6899H52.4221V28.0806Z" fill="#F14ABD"/>
<path d="M52.4221 27.4771H30.2441V28.0863H52.4221V27.4771Z" fill="#F049BC"/>
<path d="M52.4221 26.8679H30.2441V27.4772H52.4221V26.8679Z" fill="#F048BC"/>
<path d="M52.4221 26.2585H30.2441V26.8678H52.4221V26.2585Z" fill="#EF47BC"/>
<path d="M52.4221 25.6492H30.2441V26.2585H52.4221V25.6492Z" fill="#EF46BB"/>
<path d="M52.4221 25.1523H30.2441V25.6492H52.4221V25.1523Z" fill="#EE45BB"/>
<path d="M42.3534 43.8926H26.2148V49.3111H42.3534V43.8926Z" fill="#FF64C4"/>
<path d="M42.3534 43.2832H26.2148V43.8925H42.3534V43.2832Z" fill="#FF64C4"/>
<path d="M42.3534 42.6738H26.2148V43.2831H42.3534V42.6738Z" fill="#FE63C4"/>
<path d="M42.3534 42.0647H26.2148V42.674H42.3534V42.0647Z" fill="#FE62C3"/>
<path d="M42.3534 41.4612H26.2148V42.0705H42.3534V41.4612Z" fill="#FD61C3"/>
<path d="M42.3534 40.8518H26.2148V41.4611H42.3534V40.8518Z" fill="#FD60C3"/>
<path d="M42.3534 40.2427H26.2148V40.852H42.3534V40.2427Z" fill="#FC5FC3"/>
<path d="M42.3534 39.6333H26.2148V40.2426H42.3534V39.6333Z" fill="#FC5EC2"/>
<path d="M42.3534 39.2429H26.2148V39.6333H42.3534V39.2429Z" fill="#FB5DC2"/>
<path d="M100.813 43.8926H88.7168V49.3052H100.813V43.8926Z" fill="#FF64C4"/>
<path d="M100.813 43.2832H88.7168V43.8925H100.813V43.2832Z" fill="#FF64C4"/>
<path d="M100.813 42.6741H88.7168V43.2834H100.813V42.6741Z" fill="#FE63C4"/>
<path d="M100.813 42.0647H88.7168V42.674H100.813V42.0647Z" fill="#FE62C3"/>
<path d="M100.813 41.4614H88.7168V42.0707H100.813V41.4614Z" fill="#FD61C3"/>
<path d="M100.813 40.8521H88.7168V41.4613H100.813V40.8521Z" fill="#FD60C3"/>
<path d="M100.813 40.2427H88.7168V40.852H100.813V40.2427Z" fill="#FC5FC3"/>
<path d="M100.813 39.6335H88.7168V40.2428H100.813V39.6335Z" fill="#FC5EC2"/>
<path d="M100.813 39.0242H88.7168V39.6335H100.813V39.0242Z" fill="#FB5DC2"/>
<path d="M100.813 38.4209H88.7168V39.0302H100.813V38.4209Z" fill="#FA5CC2"/>
<path d="M100.813 37.8115H88.7168V38.4208H100.813V37.8115Z" fill="#FA5BC1"/>
<path d="M100.813 37.2021H88.7168V37.8114H100.813V37.2021Z" fill="#F95AC1"/>
<path d="M100.813 36.593H88.7168V37.2023H100.813V36.593Z" fill="#F959C1"/>
<path d="M100.813 35.9895H88.7168V36.5988H100.813V35.9895Z" fill="#F858C0"/>
<path d="M100.813 35.3804H88.7168V35.9897H100.813V35.3804Z" fill="#F857C0"/>
<path d="M100.813 34.771H88.7168V35.3803H100.813V34.771Z" fill="#F756C0"/>
<path d="M100.813 34.1616H88.7168V34.7709H100.813V34.1616Z" fill="#F655C0"/>
<path d="M100.813 33.5525H88.7168V34.1618H100.813V33.5525Z" fill="#F654BF"/>
<path d="M100.813 32.949H88.7168V33.5583H100.813V32.949Z" fill="#F553BF"/>
<path d="M100.813 32.3398H88.7168V32.9491H100.813V32.3398Z" fill="#F552BF"/>
<path d="M100.813 31.7305H88.7168V32.3398H100.813V31.7305Z" fill="#F451BE"/>
<path d="M100.813 31.1211H88.7168V31.7304H100.813V31.1211Z" fill="#F450BE"/>
<path d="M100.813 30.512H88.7168V31.1213H100.813V30.512Z" fill="#F34FBE"/>
<path d="M100.813 29.9084H88.7168V30.5177H100.813V29.9084Z" fill="#F34EBE"/>
<path d="M100.813 29.2993H88.7168V29.9086H100.813V29.2993Z" fill="#F24CBD"/>
<path d="M100.813 29.1809H88.7168V29.2992H100.813V29.1809Z" fill="#F14BBD"/>
</svg>
